<svg xmlns="http://www.w3.org/2000/svg" width="5919" height="1089" viewBox="0 0 5919 1089" fill="none"><script xmlns="" type="text/javascript" src="chrome-extension://gjalmnplbjipbddhhmnlohlmhgdnlkcp/getShopifyInfoInDocument.js"/>
<path d="M469.402 600.179L371.609 769.639C370.873 770.914 370.485 772.36 370.484 773.832C370.484 775.304 370.871 776.75 371.606 778.025C372.341 779.3 373.399 780.36 374.673 781.097C375.947 781.834 377.392 782.223 378.864 782.225H568.429C570.486 782.226 572.507 781.686 574.288 780.658C576.07 779.631 577.55 778.152 578.578 776.371C579.607 774.59 580.149 772.57 580.149 770.513C580.15 768.456 579.608 766.435 578.58 764.654L483.699 600.179C482.98 598.917 481.94 597.868 480.685 597.138C479.429 596.408 478.003 596.023 476.55 596.023C475.098 596.023 473.672 596.408 472.416 597.138C471.16 597.868 470.12 598.917 469.402 600.179Z" fill="#0395E8"/>
<path d="M506.14 782.159H574.467C575.911 782.159 577.329 781.779 578.58 781.057C579.83 780.335 580.869 779.297 581.591 778.046C582.313 776.796 582.693 775.377 582.693 773.933C582.693 772.489 582.313 771.071 581.591 769.82L483.699 600.179C482.977 598.929 481.938 597.89 480.688 597.168C479.437 596.446 478.019 596.066 476.575 596.066C475.131 596.066 473.712 596.446 472.462 597.168C471.211 597.89 470.173 598.929 469.451 600.179L456.289 623.097L506.14 782.159Z" fill="#0384CC"/>
<path d="M457.622 80.5739L249.154 428.033C246.998 431.617 245.859 435.721 245.859 439.903C245.859 444.086 246.998 448.189 249.154 451.774L362.675 640.121C364.742 643.555 367.669 646.39 371.167 648.346C374.665 650.303 378.613 651.313 382.62 651.276C386.628 651.24 390.557 650.158 394.019 648.138C397.48 646.118 400.355 643.23 402.359 639.759L606.007 287.2C607.929 283.881 608.923 280.106 608.886 276.271C608.848 272.436 607.78 268.681 605.793 265.4L494.361 80.541C492.461 77.3624 489.769 74.7315 486.547 72.9056C483.326 71.0798 479.685 70.1217 475.982 70.125C472.279 70.1283 468.641 71.093 465.422 72.9246C462.204 74.7561 459.516 77.3919 457.622 80.5739Z" fill="#0395E8"/>
<path d="M23.0323 872.647H254.6C258.642 872.646 262.613 871.581 266.113 869.56C269.613 867.538 272.52 864.631 274.541 861.131L358.201 716.251C360.261 712.685 361.328 708.633 361.291 704.515C361.253 700.398 360.112 696.366 357.987 692.839L243.577 503.06C241.53 499.653 238.635 496.834 235.176 494.876C231.716 492.919 227.809 491.891 223.834 491.891C219.859 491.891 215.952 492.919 212.492 494.876C209.033 496.834 206.139 499.653 204.091 503.06L3.2894 837.752C1.18968 841.247 0.0552475 845.236 0.00196736 849.313C-0.0513128 853.39 0.978472 857.408 2.98613 860.956C4.99379 864.505 7.90738 867.457 11.4293 869.511C14.9512 871.565 18.9552 872.647 23.0323 872.647Z" fill="#0395E8"/>
<path d="M436.264 581.078L476.655 511.155L339.82 277.07L436.264 581.078Z" fill="#0384CC"/>
<path d="M339.688 274.601L456.286 81.1694C458.333 77.7623 461.227 74.9431 464.687 72.9859C468.147 71.0286 472.054 70 476.029 70C480.004 70 483.911 71.0286 487.37 72.9859C490.83 74.9431 493.724 77.7623 495.772 81.1694L948.707 836.056C950.807 839.551 951.941 843.541 951.994 847.617C952.048 851.694 951.018 855.712 949.01 859.26C947.003 862.809 944.089 865.761 940.567 867.815C937.045 869.869 933.041 870.951 928.964 870.952H697.429C693.387 870.95 689.417 869.885 685.916 867.864C682.416 865.842 679.51 862.935 677.489 859.435L339.688 274.601Z" fill="url(#paint0_linear_1413_6497)"/>
<path d="M4660.38 544.727C4660.38 616.105 4646.85 676.83 4619.79 726.901C4592.94 776.972 4556.3 815.217 4509.85 841.638C4463.61 867.845 4411.62 880.949 4353.88 880.949C4295.71 880.949 4243.51 867.739 4197.28 841.318C4151.04 814.898 4114.5 776.652 4087.65 726.581C4060.81 676.51 4047.38 615.892 4047.38 544.727C4047.38 473.349 4060.81 412.625 4087.65 362.554C4114.5 312.483 4151.04 274.344 4197.28 248.136C4243.51 221.716 4295.71 208.506 4353.88 208.506C4411.62 208.506 4463.61 221.716 4509.85 248.136C4556.3 274.344 4592.94 312.483 4619.79 362.554C4646.85 412.625 4660.38 473.349 4660.38 544.727ZM4520.08 544.727C4520.08 498.491 4513.15 459.5 4499.3 427.753C4485.66 396.006 4466.38 371.929 4441.45 355.523C4416.52 339.116 4387.33 330.913 4353.88 330.913C4320.43 330.913 4291.24 339.116 4266.31 355.523C4241.38 371.929 4221.99 396.006 4208.14 427.753C4194.51 459.5 4187.69 498.491 4187.69 544.727C4187.69 590.963 4194.51 629.955 4208.14 661.702C4221.99 693.449 4241.38 717.526 4266.31 733.932C4291.24 750.338 4320.43 758.541 4353.88 758.541C4387.33 758.541 4416.52 750.338 4441.45 733.932C4466.38 717.526 4485.66 693.449 4499.3 661.702C4513.15 629.955 4520.08 590.963 4520.08 544.727ZM5310.37 217.455V872H5190.84L4906.07 460.033H4901.28V872H4762.89V217.455H4884.34L5166.87 629.102H5172.62V217.455H5310.37ZM5424.71 872V217.455H5865.76V331.553H5563.1V487.518H5843.07V601.616H5563.1V757.902H5867.04V872H5424.71Z" fill="url(#paint1_linear_1413_6497)"/>
<path d="M1366.71 872H1218.41L1444.37 217.455H1622.71L1848.35 872H1700.05L1536.1 367.028H1530.98L1366.71 872ZM1357.44 614.72H1707.72V722.746H1357.44V614.72ZM2331.43 217.455H2469.82V642.526C2469.82 690.253 2458.42 732.014 2435.62 767.81C2413.03 803.605 2381.39 831.517 2340.7 851.545C2300 871.361 2252.59 881.268 2198.47 881.268C2144.14 881.268 2096.63 871.361 2055.93 851.545C2015.24 831.517 1983.59 803.605 1961.01 767.81C1938.42 732.014 1927.13 690.253 1927.13 642.526V217.455H2065.52V630.7C2065.52 655.629 2070.95 677.788 2081.82 697.178C2092.9 716.567 2108.45 731.801 2128.48 742.881C2148.51 753.96 2171.84 759.5 2198.47 759.5C2225.32 759.5 2248.65 753.96 2268.47 742.881C2288.5 731.801 2303.94 716.567 2314.81 697.178C2325.89 677.788 2331.43 655.629 2331.43 630.7V217.455ZM2815.71 872H2583.67V217.455H2817.62C2883.46 217.455 2940.14 230.558 2987.65 256.766C3035.17 282.76 3071.71 320.153 3097.28 368.946C3123.06 417.739 3135.95 476.119 3135.95 544.088C3135.95 612.27 3123.06 670.864 3097.28 719.869C3071.71 768.875 3034.95 806.482 2987.01 832.689C2939.29 858.896 2882.18 872 2815.71 872ZM2722.06 753.428H2809.95C2850.86 753.428 2885.27 746.183 2913.18 731.695C2941.31 716.993 2962.4 694.301 2976.47 663.619C2990.74 632.724 2997.88 592.881 2997.88 544.088C2997.88 495.722 2990.74 456.197 2976.47 425.516C2962.4 394.834 2941.42 372.249 2913.5 357.76C2885.59 343.271 2851.18 336.027 2810.27 336.027H2722.06V753.428ZM3376.85 217.455V872H3238.46V217.455H3376.85ZM3465.78 331.553V217.455H4003.35V331.553H3802.96V872H3666.17V331.553H3465.78Z" fill="#3B3B3C"/>
<defs>
<linearGradient id="paint0_linear_1413_6497" x1="369" y1="733.5" x2="605.5" y2="234" gradientUnits="userSpaceOnUse">
<stop stop-color="#0284FE"/>
<stop offset="1" stop-color="#02C2FE"/>
</linearGradient>
<linearGradient id="paint1_linear_1413_6497" x1="4960.5" y1="0" x2="4960.5" y2="1426.59" gradientUnits="userSpaceOnUse">
<stop stop-color="#0284FE"/>
<stop offset="1" stop-color="#02C2FE"/>
</linearGradient>
</defs>
</svg>